<?xml version="1.0" encoding="UTF-8"?>
<svg width="100pt" height="100pt" version="1.1" viewBox="0 0 100 100" xmlns="http://www.w3.org/2000/svg">
 <defs>
  <clipPath id="c">
   <path d="m43 18.512h11v10.488h-11z"/>
  </clipPath>
  <clipPath id="b">
   <path d="m59 34h11v47.488h-11z"/>
  </clipPath>
  <clipPath id="a">
   <path d="m31 29h33v52.488h-33z"/>
  </clipPath>
 </defs>
 <path d="m100 50c0 27.613-22.387 50-50 50s-50-22.387-50-50 22.387-50 50-50 50 22.387 50 50" fill="#d1cdc9"/>
 <g clip-path="url(#c)">
  <path d="m48.754 28.414c2.7344 0 4.9453-2.2227 4.9453-4.957 0-2.7383-2.207-4.9453-4.9453-4.9453-2.7344 0-4.957 2.207-4.957 4.9414 0 2.7383 2.2227 4.9609 4.957 4.9609z" fill="#453c31"/>
 </g>
 <path d="m40.391 29.23c0.19141-0.76172-0.29297-1.5195-1.0391-1.7109l-4.125-0.99609c-0.77344-0.17578-1.5352 0.27734-1.7109 1.0391l-3.4648 14.348c-0.19141 0.76172 0.27734 1.5195 1.0391 1.7109l4.1406 0.99609c0.74609 0.19141 1.5195-0.27734 1.6953-1.0391z" fill="#453c31"/>
 <g clip-path="url(#b)">
  <path d="m59.434 80.258c0 0.03125-0.015625 0.058594-0.015625 0.074219 0 0.62891 0.51172 1.1406 1.1406 1.1406 0.57031 0 1.0547-0.4375 1.125-0.99609l8.3086-45.059v-0.089844c0-0.61328-0.49609-1.125-1.125-1.125-0.57031 0-1.0078 0.4375-1.125 0.99609z" fill="#453c31"/>
 </g>
 <g clip-path="url(#a)">
  <path d="m31.789 77.305c-0.042968 0.23437-0.058593 0.46875-0.058593 0.70312 0 1.9297 1.5508 3.4805 3.4805 3.4805 1.5781 0 2.9102-1.0547 3.3359-2.4844l5.9805-24.762 5.7031 24.613c0.36719 1.5195 1.7422 2.6328 3.3633 2.6328 1.9297 0 3.4805-1.5508 3.4805-3.4805 0-0.26172-0.027344-0.51172-0.074219-0.76172l-7.8203-32.703 0.65625-2.8828 0.51172 2.2656c0.46875 1.4766 1.8125 1.625 1.8125 1.625l8.0586 2.0469c0.16016 0.03125 0.32031 0.042969 0.48438 0.042969 1.3164 0 2.3828-1.0547 2.3828-2.3711 0-1.125-0.77344-2.0781-1.8281-2.3242l-6.9727-1.75-1.9141-7.7812c-0.90625-4.3438-5.0586-4.2422-5.0586-4.2422-4.0352-0.10156-5.0469 4.1406-5.0469 4.1406z" fill="#453c31"/>
 </g>
</svg>
